<svg width="119" height="40" viewBox="0 0 119 40" fill="none" xmlns="http://www.w3.org/2000/svg">
<g clip-path="url(#clip0_152_21)">
<path d="M28.75 0H11.25C5.0368 0 0 5.0368 0 11.25V28.75C0 34.9631 5.0368 40 11.25 40H28.75C34.9631 40 40 34.9631 40 28.75V11.25C40 5.0368 34.9631 0 28.75 0Z" fill="#3772FF"/>
<path d="M30.0731 12.4828C29.4791 11.4254 28.6179 10.5474 27.5782 9.93898C26.5383 9.33056 25.3574 9.01371 24.1568 9.02099H15.0351C13.9558 9.01147 12.8889 9.25692 11.9194 9.73791C10.95 10.219 10.1044 10.9224 9.44989 11.7922C9.3769 11.8916 9.30701 11.9919 9.2403 12.0932C9.09459 12.3194 9.01197 12.5814 9.00121 12.8513C8.99042 13.1212 9.05195 13.3891 9.17917 13.6265C9.30644 13.8639 9.49466 14.0619 9.72391 14.1997C9.95324 14.3375 10.215 14.4099 10.4816 14.4091H24.1568C24.4228 14.409 24.6844 14.4798 24.9148 14.6147C25.1454 14.7494 25.3368 14.9434 25.4699 15.1769C25.6029 15.4105 25.6727 15.6755 25.6727 15.9452C25.6725 16.2149 25.6025 16.4798 25.4692 16.7133L20.8497 24.8221C20.7166 25.0555 20.5253 25.2495 20.2949 25.3843C20.0645 25.5191 19.8032 25.5901 19.5371 25.5901C19.2712 25.5901 19.0098 25.5191 18.7795 25.3843C18.549 25.2495 18.3577 25.0555 18.2246 24.8221L16.9538 22.5925C16.4698 21.7428 15.7735 21.0371 14.9351 20.5465C14.0966 20.056 13.1455 19.7977 12.1774 19.7978H11.7842C11.5245 19.7979 11.2695 19.8672 11.0446 19.9988C10.8198 20.1304 10.633 20.3197 10.5032 20.5476C10.3735 20.7756 10.3052 21.0341 10.3052 21.2972C10.3053 21.5605 10.3737 21.819 10.5036 22.0468L13.6201 27.5165C14.2197 28.5693 15.0822 29.4436 16.1208 30.0513C17.1595 30.6592 18.3378 30.9793 19.5371 30.9793C20.7365 30.9793 21.9148 30.6592 22.9535 30.0513C23.9922 29.4436 24.8547 28.5693 25.4542 27.5165L30.0738 19.4064C30.6802 18.3563 31 17.1615 31 15.9446C31 14.7279 30.6798 13.5329 30.0731 12.4828Z" fill="#FCFCFD"/>
<path d="M53.7212 32.1866L63.8765 12.4662V12.3095H52V7.5H70.1714V12.3457L59.9792 32.1866H53.7212Z" fill="#FCFCFD"/>
<path d="M76.6036 32.5C75.3988 32.5 74.3291 32.3031 73.3947 31.9094C72.4686 31.5076 71.735 30.9049 71.194 30.1013C70.6613 29.2896 70.3949 28.2731 70.3949 27.0516C70.3949 26.023 70.5793 25.1551 70.9481 24.4479C71.317 23.7408 71.8251 23.1662 72.4727 22.7242C73.1202 22.2822 73.866 21.9487 74.7103 21.7237C75.5545 21.4907 76.4561 21.334 77.4151 21.2536C78.4888 21.1572 79.3535 21.0567 80.0092 20.9523C80.6649 20.8398 81.1403 20.6831 81.4354 20.4822C81.7387 20.2732 81.8903 19.9799 81.8903 19.6022V19.5419C81.8903 18.9232 81.6731 18.445 81.2387 18.1075C80.8043 17.77 80.2182 17.6013 79.4806 17.6013C78.6855 17.6013 78.0462 17.77 77.5626 18.1075C77.079 18.445 76.7716 18.9111 76.6405 19.5058L71.0957 19.3129C71.2596 18.1879 71.6817 17.1834 72.362 16.2994C73.0505 15.4074 73.9931 14.7083 75.1898 14.202C76.3946 13.6877 77.8413 13.4306 79.5297 13.4306C80.7346 13.4306 81.8452 13.5712 82.8616 13.8525C83.8779 14.1257 84.7631 14.5275 85.5172 15.0579C86.2712 15.5802 86.8532 16.2231 87.263 16.9865C87.681 17.7499 87.89 18.6218 87.89 19.6022V32.1866H82.2345V29.607H82.087C81.7509 30.2338 81.3206 30.7642 80.7961 31.1982C80.2797 31.6321 79.6691 31.9576 78.9642 32.1745C78.2675 32.3915 77.4806 32.5 76.6036 32.5ZM78.4601 28.6427C79.1076 28.6427 79.6896 28.5141 80.2059 28.257C80.7305 27.9998 81.1485 27.6463 81.46 27.1962C81.7714 26.7382 81.9272 26.2078 81.9272 25.6051V23.8452C81.755 23.9336 81.546 24.014 81.3001 24.0863C81.0625 24.1586 80.8002 24.2269 80.5133 24.2912C80.2264 24.3555 79.9314 24.4118 79.6281 24.46C79.3248 24.5082 79.0338 24.5524 78.7552 24.5926C78.1896 24.681 77.706 24.8176 77.3044 25.0024C76.911 25.1872 76.6077 25.4283 76.3946 25.7257C76.1897 26.0149 76.0873 26.3605 76.0873 26.7623C76.0873 27.373 76.3086 27.8391 76.7512 28.1606C77.202 28.482 77.7716 28.6427 78.4601 28.6427Z" fill="#FCFCFD"/>
<path d="M90.8737 32.1866V13.6716H96.5906V17.0709H96.7996C97.1931 15.9458 97.857 15.0579 98.7914 14.4069C99.7258 13.756 100.84 13.4306 102.135 13.4306C103.447 13.4306 104.57 13.76 105.504 14.419C106.439 15.078 107.033 15.9619 107.287 17.0709H107.484C107.836 15.9699 108.525 15.09 109.549 14.4311C110.574 13.7641 111.783 13.4306 113.176 13.4306C114.963 13.4306 116.414 13.9931 117.528 15.1181C118.643 16.2351 119.2 17.77 119.2 19.7228V32.1866H113.188V21.0728C113.188 20.1487 112.946 19.4455 112.463 18.9634C111.979 18.4732 111.352 18.2281 110.582 18.2281C109.754 18.2281 109.102 18.4933 108.627 19.0236C108.16 19.546 107.926 20.2491 107.926 21.1331V32.1866H102.148V21.0125C102.148 20.1527 101.91 19.4736 101.435 18.9754C100.959 18.4772 100.332 18.2281 99.5536 18.2281C99.0291 18.2281 98.566 18.3526 98.1643 18.6017C97.7627 18.8428 97.4472 19.1884 97.2177 19.6384C96.9964 20.0884 96.8857 20.6188 96.8857 21.2295V32.1866H90.8737Z" fill="#FCFCFD"/>
</g>
<defs>
<clipPath id="clip0_152_21">
<rect width="119" height="40" fill="white"/>
</clipPath>
</defs>
</svg>
